<svg version="1.1" xmlns="http://www.w3.org/2000/svg" xmlns:xlink="http://www.w3.org/1999/xlink" width="24" height="24" viewBox="0,0,256,256"><g fill="#ffffff" fill-rule="none" stroke="none" stroke-width="1" stroke-linecap="butt" stroke-linejoin="miter" stroke-miterlimit="10" stroke-dasharray="" stroke-dashoffset="0" font-family="none" font-weight="none" font-size="none" text-anchor="none" style="mix-blend-mode: normal"><g transform="translate(0,-0.00004) scale(10.66667,10.66667)"><g id="Iconly/Bulk/Bookmark"><g id="Bookmark"><path d="M11.9912,18.6217l-6.49175,3.2426c-0.49024,0.2661 -1.10177,0.0884 -1.37597,-0.3998c-0.08008,-0.1535 -0.12242,-0.3241 -0.12348,-0.4975v-7.258c0,0.7196 0.40573,1.1638 1.47299,1.6612z" id="Bookmark 2" fill-rule="nonzero" opacity="0.4"></path><path d="M8.89526,2h6.17424c2.7078,0 4.904,1.06605 4.9305,3.79337v15.17343c-0.0011,0.1706 -0.0435,0.3383 -0.1235,0.4886c-0.1286,0.2453 -0.3506,0.4273 -0.615,0.5044c-0.2645,0.077 -0.5487,0.0425 -0.7874,-0.0957l-6.4829,-3.2426l-6.51821,-3.2514c-1.06726,-0.4975 -1.47299,-0.9417 -1.47299,-1.6613v-7.91543c0,-2.72732 2.19625,-3.79337 4.89526,-3.79337zM8.22492,9.62227h7.52368c0.4336,0 0.785,-0.35399 0.785,-0.79065c0,-0.43667 -0.3514,-0.79066 -0.785,-0.79066h-7.52368c-0.43355,0 -0.78501,0.35399 -0.78501,0.79066c0,0.43666 0.35146,0.79065 0.78501,0.79065z" id="Bookmark_2" fill-rule="evenodd"></path></g></g></g></g></svg>