<svg version="1.1" xmlns="http://www.w3.org/2000/svg" xmlns:xlink="http://www.w3.org/1999/xlink" width="24" height="24" viewBox="0,0,256,256"><g fill="#ffffff" fill-rule="nonzero" stroke="none" stroke-width="1" stroke-linecap="butt" stroke-linejoin="miter" stroke-miterlimit="10" stroke-dasharray="" stroke-dashoffset="0" font-family="none" font-weight="none" font-size="none" text-anchor="none" style="mix-blend-mode: normal"><g transform="translate(-0.00053,0.00053) scale(10.66667,10.66667)"><g id="Iconly/Bulk/Edit"><g id="Edit"><path d="M19.9927,18.9531h-5.6943c-0.5555,0 -1.0074,0.459 -1.0074,1.0234c0,0.5654 0.4519,1.0234 1.0074,1.0234h5.6943c0.5556,0 1.0074,-0.458 1.0074,-1.0234c0,-0.5644 -0.4518,-1.0234 -1.0074,-1.0234z" id="Fill 1" opacity="0.4"></path><path d="M10.309,6.9041l5.3959,4.3601c0.1301,0.1043 0.1524,0.2956 0.0508,0.4289l-6.39696,8.3353c-0.40212,0.515 -0.99472,0.8063 -1.62966,0.817l-3.49212,0.043c-0.18625,0.0022 -0.34921,-0.1268 -0.39154,-0.3117l-0.79367,-3.4507c-0.13756,-0.6342 0,-1.29 0.40213,-1.7952l6.42868,-8.37511c0.10371,-0.13437 0.29524,-0.15802 0.42644,-0.05159z" id="Fill 3"></path><path d="M18.1203,8.66544l-1.0402,1.29857c-0.1048,0.13219 -0.2932,0.15369 -0.4233,0.04839c-1.2646,-1.02339 -4.5027,-3.64955 -5.4012,-4.37731c-0.1312,-0.1075 -0.1492,-0.29884 -0.0434,-0.43214l1.0032,-1.24589c0.9101,-1.17172 2.4974,-1.27922 3.7779,-0.258l1.4709,1.17172c0.6032,0.47299 1.0053,1.09648 1.1429,1.75221c0.1587,0.72131 -0.0106,1.42971 -0.4868,2.04245z" id="Fill 5" opacity="0.4"></path></g></g></g></g></svg>