<svg width="20" height="20" viewBox="0 0 20 20" fill="none" xmlns="http://www.w3.org/2000/svg">
<path opacity="0.4" d="M14.8843 3.11485H11.9413C11.2081 3.11969 10.512 2.79355 10.0474 2.22751L9.0782 0.887624C8.62137 0.316613 7.9253 -0.0110553 7.19321 0.000284957H5.11261C1.37819 0.000284957 1.05022e-05 2.19201 1.05022e-05 5.91884V9.94736C-0.00463617 10.3904 19.9956 10.3898 19.9969 9.94736V8.77607C20.0147 5.04924 18.6721 3.11485 14.8843 3.11485Z" fill="white"/>
<path fill-rule="evenodd" clip-rule="evenodd" d="M18.8321 4.54329C19.1521 4.91737 19.3993 5.34768 19.5612 5.81219C19.8798 6.76687 20.0273 7.77012 19.9969 8.7759V14.0289C19.9956 14.4714 19.963 14.9132 19.8991 15.3511C19.7775 16.1238 19.5057 16.8653 19.0989 17.5339C18.9119 17.8569 18.6849 18.155 18.4231 18.4213C17.2383 19.5087 15.665 20.0747 14.0574 19.9919H5.93061C4.32049 20.0741 2.74462 19.5083 1.55601 18.4213C1.2974 18.1545 1.07337 17.8564 0.889149 17.5339C0.484751 16.8658 0.21869 16.1236 0.1067 15.3511C0.0354894 14.914 -0.000192693 14.4718 9.42692e-07 14.0289V8.7759C-0.000172448 8.33718 0.0235732 7.89878 0.0711337 7.46264C0.0811349 7.38612 0.096136 7.31084 0.110982 7.23635C0.135731 7.11216 0.160048 6.99014 0.160048 6.86812C0.250307 6.34179 0.414959 5.83092 0.649079 5.35077C1.34261 3.86891 2.76525 3.11467 5.09481 3.11467H14.8754C16.1802 3.01376 17.4753 3.40656 18.5032 4.21498C18.6215 4.31535 18.7316 4.42515 18.8321 4.54329ZM4.97033 13.5409H15.0355H15.0533C15.2741 13.5505 15.4896 13.4715 15.6517 13.3214C15.8137 13.1714 15.9088 12.9628 15.9157 12.7423C15.9282 12.5485 15.8644 12.3575 15.7379 12.2099C15.5924 12.0116 15.3618 11.8932 15.1155 11.8905H4.97033C4.51365 11.8905 4.14343 12.2599 4.14343 12.7157C4.14343 13.1714 4.51365 13.5409 4.97033 13.5409Z" fill="white"/>
</svg>
